# xmcd CD database file
#
# Track frame offsets:
#	150
#	14268
#	29733
#	42668
#	55767
#	76324
#	88684
#	103868
#	123738
#	136066
#
# Disc length: 2027 seconds
#
# Revision: 0
# Processed by: cddbd v1.5.2PL0 Copyright (c) Steve Scherf et al.
# Submitted via: CDex 1.70beta2
#
DISCID=8607e90a
DTITLE=Tim Hermitte - Maple Leaf Swing
DYEAR=1900
DGENRE=Country
TTITLE0=Emptiest Arms In The World
TTITLE1=After Sweet Memories
TTITLE2=Dreams Of A Dreamer
TTITLE3=Honky Tonk Angel
TTITLE4=Maple Leaf Swing
TTITLE5=Sea Of Heart Break
TTITLE6=She's The One
TTITLE7=Some Fools Never Learn
TTITLE8=I Need A Girl Like You
TTITLE9=Tobacco Road
EXTD=
EXTT0=
EXTT1=
EXTT2=
EXTT3=
EXTT4=
EXTT5=
EXTT6=
EXTT7=
EXTT8=
EXTT9=
PLAYORDER=
